<svg xmlns="http://www.w3.org/2000/svg" viewBox="0 0 900 600">
  <!-- Background -->
  <rect width="900" height="600" fill="#f9fafb" rx="20" ry="20" />
  
  <!-- Title -->
  <text x="450" y="50" font-family="Arial, sans-serif" font-size="24" font-weight="bold" text-anchor="middle" fill="#1f2937">Next Auth GitHub OAuth Flow</text>
  
  <!-- Entities with gradient fills -->
  <defs>
    <linearGradient id="userGradient" x1="0%" y1="0%" x2="0%" y2="100%">
      <stop offset="0%" stop-color="#93c5fd" />
      <stop offset="100%" stop-color="#60a5fa" />
    </linearGradient>
    <linearGradient id="appGradient" x1="0%" y1="0%" x2="0%" y2="100%">
      <stop offset="0%" stop-color="#bbf7d0" />
      <stop offset="100%" stop-color="#86efac" />
    </linearGradient>
    <linearGradient id="nextAuthGradient" x1="0%" y1="0%" x2="0%" y2="100%">
      <stop offset="0%" stop-color="#fde68a" />
      <stop offset="100%" stop-color="#fcd34d" />
    </linearGradient>
    <linearGradient id="githubGradient" x1="0%" y1="0%" x2="0%" y2="100%">
      <stop offset="0%" stop-color="#e9d5ff" />
      <stop offset="100%" stop-color="#d8b4fe" />
    </linearGradient>
    <linearGradient id="jwtGradient" x1="0%" y1="0%" x2="0%" y2="100%">
      <stop offset="0%" stop-color="#bae6fd" />
      <stop offset="100%" stop-color="#7dd3fc" />
    </linearGradient>
    
    <!-- Arrows -->
    <marker id="arrowhead" markerWidth="10" markerHeight="7" refX="9" refY="3.5" orient="auto">
      <polygon points="0 0, 10 3.5, 0 7" fill="#4b5563" />
    </marker>
    <marker id="dashedarrowhead" markerWidth="10" markerHeight="7" refX="9" refY="3.5" orient="auto">
      <polygon points="0 0, 10 3.5, 0 7" fill="#0891b2" />
    </marker>
  </defs>
  
  <!-- Entities -->
  <rect x="80" y="120" width="140" height="70" rx="10" ry="10" fill="url(#userGradient)" stroke="#2563eb" stroke-width="2" filter="drop-shadow(3px 3px 3px rgba(0,0,0,0.2))" />
  <text x="150" y="160" font-family="Arial, sans-serif" font-size="18" font-weight="bold" text-anchor="middle" fill="#1e3a8a">User/Browser</text>
  
  <rect x="380" y="120" width="140" height="70" rx="10" ry="10" fill="url(#appGradient)" stroke="#16a34a" stroke-width="2" filter="drop-shadow(3px 3px 3px rgba(0,0,0,0.2))" />
  <text x="450" y="160" font-family="Arial, sans-serif" font-size="18" font-weight="bold" text-anchor="middle" fill="#166534">Your App</text>
  
  <rect x="380" y="240" width="140" height="70" rx="10" ry="10" fill="url(#nextAuthGradient)" stroke="#d97706" stroke-width="2" filter="drop-shadow(3px 3px 3px rgba(0,0,0,0.2))" />
  <text x="450" y="280" font-family="Arial, sans-serif" font-size="18" font-weight="bold" text-anchor="middle" fill="#92400e">Next Auth</text>
  
  <rect x="680" y="120" width="140" height="70" rx="10" ry="10" fill="url(#githubGradient)" stroke="#a855f7" stroke-width="2" filter="drop-shadow(3px 3px 3px rgba(0,0,0,0.2))" />
  <text x="750" y="160" font-family="Arial, sans-serif" font-size="18" font-weight="bold" text-anchor="middle" fill="#6b21a8">GitHub</text>
  
  <!-- Flow lines and labels -->
  <!-- 1. User clicks Sign in -->
  <path d="M220 155 C290 155, 290 155, 380 155" stroke="#4b5563" stroke-width="2.5" fill="none" marker-end="url(#arrowhead)" />
  <rect x="270" y="125" width="60" height="25" rx="12" ry="12" fill="#6b7280" />
  <text x="300" y="142" font-family="Arial, sans-serif" font-size="12" font-weight="bold" text-anchor="middle" fill="white">1</text>
  <text x="300" y="115" font-family="Arial, sans-serif" font-size="14" text-anchor="middle" fill="#374151">"Sign in with GitHub"</text>
  
  <!-- 2. App redirects to GitHub -->
  <path d="M520 155 C590 155, 590 155, 680 155" stroke="#4b5563" stroke-width="2.5" fill="none" marker-end="url(#arrowhead)" />
  <rect x="600" y="125" width="60" height="25" rx="12" ry="12" fill="#6b7280" />
  <text x="630" y="142" font-family="Arial, sans-serif" font-size="12" font-weight="bold" text-anchor="middle" fill="white">2</text>
  <text x="600" y="115" font-family="Arial, sans-serif" font-size="14" text-anchor="middle" fill="#374151">Redirect to auth page</text>
  
  <!-- 3. User authorizes -->
  <circle cx="750" cy="210" r="20" fill="#6b7280" />
  <text x="750" y="215" font-family="Arial, sans-serif" font-size="12" font-weight="bold" text-anchor="middle" fill="white">3</text>
  <text x="750" y="245" font-family="Arial, sans-serif" font-size="14" text-anchor="middle" fill="#374151">User authorizes app</text>
  
  <!-- 4. GitHub redirects with code -->
  <path d="M680 180 C600 200, 550 220, 520 255" stroke="#4b5563" stroke-width="2.5" fill="none" marker-end="url(#arrowhead)" />
  <rect x="575" y="200" width="60" height="25" rx="12" ry="12" fill="#6b7280" />
  <text x="605" y="217" font-family="Arial, sans-serif" font-size="12" font-weight="bold" text-anchor="middle" fill="white">4</text>
  <text x="605" y="185" font-family="Arial, sans-serif" font-size="14" text-anchor="middle" fill="#374151">Redirect with temp code</text>
  
  <!-- 5 & 6. Next Auth exchanges code for token -->
  <path d="M520 275 C600 275, 600 305, 680 305" stroke="#4b5563" stroke-width="2.5" fill="none" marker-end="url(#arrowhead)" />
  <rect x="600" y="275" width="60" height="25" rx="12" ry="12" fill="#6b7280" />
  <text x="630" y="292" font-family="Arial, sans-serif" font-size="12" font-weight="bold" text-anchor="middle" fill="white">5</text>
  <text x="600" y="260" font-family="Arial, sans-serif" font-size="14" text-anchor="middle" fill="#374151">Exchange code for token</text>
  
  <path d="M680 325 C600 325, 600 295, 520 295" stroke="#4b5563" stroke-width="2.5" fill="none" marker-end="url(#arrowhead)" />
  <rect x="600" y="325" width="60" height="25" rx="12" ry="12" fill="#6b7280" />
  <text x="630" y="342" font-family="Arial, sans-serif" font-size="12" font-weight="bold" text-anchor="middle" fill="white">6</text>
  <text x="600" y="360" font-family="Arial, sans-serif" font-size="14" text-anchor="middle" fill="#374151">Return access token</text>
  
  <!-- 7 & 8. Fetch profile -->
  <path d="M520 295 C600 365, 600 385, 680 385" stroke="#4b5563" stroke-width="2.5" fill="none" marker-end="url(#arrowhead)" />
  <rect x="600" y="365" width="60" height="25" rx="12" ry="12" fill="#6b7280" />
  <text x="630" y="382" font-family="Arial, sans-serif" font-size="12" font-weight="bold" text-anchor="middle" fill="white">7</text>
  <text x="600" y="400" font-family="Arial, sans-serif" font-size="14" text-anchor="middle" fill="#374151">Fetch user profile</text>
  
  <path d="M680 405 C600 405, 600 425, 520 405" stroke="#4b5563" stroke-width="2.5" fill="none" marker-end="url(#arrowhead)" />
  <rect x="600" y="415" width="60" height="25" rx="12" ry="12" fill="#6b7280" />
  <text x="630" y="432" font-family="Arial, sans-serif" font-size="12" font-weight="bold" text-anchor="middle" fill="white">8</text>
  <text x="600" y="450" font-family="Arial, sans-serif" font-size="14" text-anchor="middle" fill="#374151">Return user data</text>
  
  <!-- 9. JWT Creation -->
  <rect x="350" y="460" width="200" height="90" rx="10" ry="10" fill="url(#nextAuthGradient)" stroke="#d97706" stroke-width="2" filter="drop-shadow(3px 3px 3px rgba(0,0,0,0.2))" />
  <text x="450" y="485" font-family="Arial, sans-serif" font-size="18" font-weight="bold" text-anchor="middle" fill="#92400e">JWT Creation</text>
  <text x="450" y="515" font-family="Arial, sans-serif" font-size="14" text-anchor="middle" fill="#78350f">9. Create, encrypt and</text>
  <text x="450" y="535" font-family="Arial, sans-serif" font-size="14" text-anchor="middle" fill="#78350f">store as session cookie</text>
  
  <path d="M450 310 L450 460" stroke="#4b5563" stroke-width="2.5" fill="none" marker-end="url(#arrowhead)" />
  
  <!-- 10. Final redirect with session -->
  <path d="M350 505 C280 505, 150 505, 150 190" stroke="#4b5563" stroke-width="2.5" fill="none" marker-end="url(#arrowhead)" />
  <rect x="150" y="485" width="60" height="25" rx="12" ry="12" fill="#6b7280" />
  <text x="180" y="502" font-family="Arial, sans-serif" font-size="12" font-weight="bold" text-anchor="middle" fill="white">10</text>
  <text x="180" y="525" font-family="Arial, sans-serif" font-size="14" text-anchor="middle" fill="#374151">Redirect with session</text>
  
  <!-- Custom JWT callout -->
  <rect x="80" y="340" width="220" height="100" rx="10" ry="10" fill="url(#jwtGradient)" stroke="#0891b2" stroke-width="2.5" stroke-dasharray="6,3" filter="drop-shadow(3px 3px 3px rgba(0,0,0,0.2))" />
  <text x="190" y="365" font-family="Arial, sans-serif" font-size="16" font-weight="bold" text-anchor="middle" fill="#0e7490">JWT Callback</text>
  <text x="190" y="390" font-family="Arial, sans-serif" font-size="13" text-anchor="middle" fill="#155e75">token.accessToken =</text>
  <text x="190" y="410" font-family="Arial, sans-serif" font-size="13" text-anchor="middle" fill="#155e75">account.access_token</text>
  <text x="190" y="430" font-family="Arial, sans-serif" font-size="13" text-anchor="middle" fill="#155e75">Add GitHub token to JWT</text>
  
  <path d="M300 390 C330 390, 350 420, 350 490" stroke="#0891b2" stroke-width="2" stroke-dasharray="6,3" fill="none" marker-end="url(#dashedarrowhead)" />
</svg>
